<svg id="Layer_1" data-name="Layer 1" xmlns="http://www.w3.org/2000/svg" viewBox="0 0 2000 2000">
  <defs>
    <style>
      .cls-1 {
        fill: #0a1b44;
        opacity: 0;
      }

      .cls-2 {
        fill: #4442d6;
      }

      .cls-3 {
        fill: #222933;
      }
    </style>
  </defs>
  <title>Juvo_Primary-Color_02_Stacked</title>
  <rect class="cls-1" width="2000" height="2000"/>
  <path class="cls-2" d="M1275.16,884.67c19.85-13.93,27-42.84,16-64.45l-206.88-406c-22.57-44.29-53.44-66.38-84.29-66.38S938.21,370,915.68,414.23l-206.88,406c-11,21.61-3.82,50.52,16,64.45l264,185.22v87a7.44,7.44,0,0,0,7.42,7.42h7.42a7.44,7.44,0,0,0,7.42-7.42v-87Zm-3.8-54.34c6.06,11.9,1.95,28.44-9,36.11l-251.24,176.25V865.82L1182.46,745.6a8.83,8.83,0,0,0,2.71-10.88l-3.47-6.81a6.28,6.28,0,0,0-9.44-2.35l-161.12,113V661.73l94.73-66.45a8.82,8.82,0,0,0,2.7-10.87l-3.5-6.85a6.28,6.28,0,0,0-9.45-2.35l-84.49,59.29V414.72a7.44,7.44,0,0,0-7.42-7.42h-7.42a7.44,7.44,0,0,0-7.42,7.42V634.49L904.38,575.2a6.28,6.28,0,0,0-9.45,2.35l-3.5,6.85a8.82,8.82,0,0,0,2.7,10.87l94.73,66.45V838.59l-161.12-113a6.28,6.28,0,0,0-9.44,2.35l-3.47,6.81a8.83,8.83,0,0,0,2.71,10.88L988.87,865.82v176.87L737.63,866.45c-10.93-7.67-15-24.21-9-36.11l206.88-406C953.9,388.26,977,370.19,1000,370.19s46.07,18,64.47,54.15Z"/>
  <g>
    <path class="cls-3" d="M1640.31,1291.3c-101.39,0-183.58,72-183.58,178.24s82.18,178.24,183.58,178.24,183.58-72,183.58-178.24S1741.71,1291.3,1640.31,1291.3Zm0,313.79c-81.63,0-140.89-57-140.89-135.55S1558.69,1334,1640.31,1334s140.89,57,140.89,135.55S1721.94,1605.09,1640.31,1605.09Z"/>
    <polygon class="cls-3" points="1364.99 1295.57 1217.29 1643.52 1171.14 1643.52 1023.45 1295.57 1069.83 1295.57 1194.22 1588.61 1318.6 1295.57 1364.99 1295.57"/>
    <path class="cls-3" d="M899.64,1295.57v176.11c0,121-72.47,176.11-151.56,176.11-76.74,0-151.56-52.47-151.56-176.11V1295.57h42.69v176.11c0,45.4,12,81.48,34.65,104.38,18.55,18.72,44.91,29,74.22,29,21,0,51-5.14,74.78-29.69,22.31-23,34.09-58.87,34.09-103.72V1295.57Z"/>
    <path class="cls-3" d="M442.83,1295.57v176.11c0,121-72.47,176.11-151.56,176.11-43.4,0-86.2-16.78-115.16-53.75l29.76-31.61A96.9,96.9,0,0,0,217,1576.06c18.55,18.72,44.91,29,74.22,29,21,0,51-5.14,74.78-29.69,22.31-23,34.09-58.87,34.09-103.72V1295.57Z"/>
  </g>
</svg>
