<svg id="Layer_1" data-name="Layer 1" xmlns="http://www.w3.org/2000/svg" viewBox="0 0 2000 800">
  <defs>
    <style>
      .cls-1 {
        fill: #0a1b44;
        opacity: 0;
      }

      .cls-2 {
        fill: #222933;
      }

      .cls-3 {
        fill: #4442d6;
      }
    </style>
  </defs>
  <title>Juvo_Primary-Color_01_Primary</title>
  <rect class="cls-1" width="2000" height="800"/>
  <g>
    <path class="cls-2" d="M1700.54,263.39C1619.59,263.39,1554,318.61,1554,400s65.61,136.61,146.56,136.61S1847.1,481.39,1847.1,400,1781.49,263.39,1700.54,263.39Zm0,240.49c-65.17,0-112.47-43.7-112.47-103.89s47.31-103.89,112.47-103.89S1813,339.81,1813,400,1765.71,503.89,1700.54,503.89Z"/>
    <polygon class="cls-2" points="1480.74 266.67 1362.83 533.33 1325.98 533.33 1208.07 266.67 1245.1 266.67 1344.4 491.26 1443.71 266.67 1480.74 266.67"/>
    <path class="cls-2" d="M1109.23,266.67v135c0,92.74-57.86,135-121,135-61.26,0-121-40.21-121-135v-135h34.08v135c0,34.8,9.56,62.45,27.66,80,14.81,14.35,35.86,22.25,59.25,22.25,16.75,0,40.71-3.94,59.7-22.76,17.81-17.64,27.22-45.12,27.22-79.49v-135Z"/>
    <path class="cls-2" d="M744.54,266.67v135c0,92.74-57.86,135-121,135-34.65,0-68.81-12.86-91.94-41.19l23.76-24.23a75,75,0,0,0,8.93,10.45c14.81,14.35,35.86,22.25,59.25,22.25,16.75,0,40.71-3.94,59.7-22.76,17.81-17.64,27.22-45.12,27.22-79.49v-135Z"/>
  </g>
  <path class="cls-3" d="M419.61,453.42C428.73,447.28,432,434.54,427,425L332,246c-10.36-19.53-24.54-29.26-38.71-29.26s-28.38,9.77-38.73,29.26l-95,179c-5.06,9.53-1.75,22.27,7.36,28.41l121.24,81.65v38.34a3.35,3.35,0,0,0,3.41,3.27H295a3.35,3.35,0,0,0,3.41-3.27V535.07Zm-1.75-24c2.78,5.25.89,12.54-4.13,15.92l-115.37,77.7v-78l78.67-53a3.8,3.8,0,0,0,1.24-4.79l-1.59-3a2.94,2.94,0,0,0-4.34-1l-74,49.82v-78l43.5-29.3a3.79,3.79,0,0,0,1.24-4.79l-1.61-3a3,3,0,0,0-4.34-1l-38.8,26.14V246.25A3.35,3.35,0,0,0,295,243h-3.41a3.35,3.35,0,0,0-3.41,3.27v96.88L249.35,317a3,3,0,0,0-4.34,1l-1.61,3a3.79,3.79,0,0,0,1.24,4.79l43.5,29.29v78l-74-49.82a2.94,2.94,0,0,0-4.34,1l-1.59,3a3.8,3.8,0,0,0,1.24,4.79l78.67,53v78l-115.37-77.7c-5-3.38-6.91-10.67-4.13-15.92l95-179c8.44-15.9,19-23.87,29.61-23.87s21.15,7.95,29.61,23.87Z"/>
</svg>
